<?xml version="1.0" encoding="iso-8859-1"?>
<!-- Generator: Adobe Illustrator 19.0.0, SVG Export Plug-In . SVG Version: 6.00 Build 0)  -->
<svg version="1.1" id="Layer_1" xmlns="http://www.w3.org/2000/svg" xmlns:xlink="http://www.w3.org/1999/xlink" x="0px" y="0px"
	 viewBox="0 0 270 270" style="enable-background:new 0 0 270 270;" xml:space="preserve">
<g>
	<path style="fill:#8AB5E6;" d="M227.405,66.871l2.576-51.116c0.206-4.104-1.279-8.113-4.111-11.091C223.039,1.686,219.109,0,215,0
		H55c-4.109,0-8.039,1.686-10.87,4.664c-2.832,2.977-4.317,6.987-4.111,11.091l2.576,51.116C34.594,75.18,30,86.34,30,98.086
		c0,14.28,6.873,27.633,18.062,36.032l12.009,122.347C60.825,264.146,67.283,270,75,270h120c7.717,0,14.175-5.854,14.929-13.535
		l12.009-122.347C233.127,125.719,240,112.366,240,98.086C240,86.34,235.406,75.18,227.405,66.871z M199.225,30l-2.149,42.655
		c-0.013,0.253-0.014,0.504-0.014,0.755H72.938c0-0.251-0.001-0.502-0.014-0.755L70.775,30H199.225z"/>
	<path style="fill:#E49429;" d="M68.64,111.672c4.786,2.248,8.036,6.85,8.553,12.111L88.6,240h92.8l11.407-116.217
		c0.517-5.262,3.767-9.863,8.553-12.111c5.248-2.465,8.64-7.798,8.64-13.586c0-4.918-2.424-9.533-6.484-12.345
		c-4.058-2.81-6.454-7.427-6.454-12.331H72.938c0,4.904-2.396,9.521-6.454,12.331C62.424,88.553,60,93.168,60,98.086
		C60,103.874,63.392,109.207,68.64,111.672z"/>
</g>
<g>
</g>
<g>
</g>
<g>
</g>
<g>
</g>
<g>
</g>
<g>
</g>
<g>
</g>
<g>
</g>
<g>
</g>
<g>
</g>
<g>
</g>
<g>
</g>
<g>
</g>
<g>
</g>
<g>
</g>
</svg>
